<svg width="21" height="21" viewBox="0 0 21 21" fill="none" xmlns="http://www.w3.org/2000/svg">
<path d="M19.6297 2.59346C20.223 2.00015 20.223 1.0382 19.6297 0.444891C19.0363 -0.14842 18.0744 -0.148421 17.4811 0.444891L10.0373 7.8887L2.59346 0.44489C2.00015 -0.148422 1.0382 -0.14842 0.444891 0.444891C-0.14842 1.0382 -0.148421 2.00015 0.444891 2.59346L7.8887 10.0373L0.44489 17.4811C-0.148422 18.0744 -0.14842 19.0363 0.444891 19.6297C1.0382 20.223 2.00015 20.223 2.59346 19.6297L10.0373 12.1858L17.4811 19.6297C18.0744 20.223 19.0363 20.223 19.6297 19.6297C20.223 19.0363 20.223 18.0744 19.6297 17.4811L12.1858 10.0373L19.6297 2.59346Z" fill="#1B2129"/>
</svg>
